Coordinates
version=1
nRows=12
nColumns=46
inDegrees=yes

Units are S.I. units (second, meters, Newtons, ...)
Angles are in degrees.

endheader
time	pelvis_tilt	pelvis_list	pelvis_rotation	pelvis_tx	pelvis_ty	pelvis_tz	bb_angle	bb_tx	bb_ty	bb_tz	hip_flexion_r	hip_adduction_r	hip_rotation_r	knee_angle_r	knee_angle_r_beta	ankle_angle_r	subtalar_angle_r	mtp_angle_r	crank_angle_r	hip_flexion_l	hip_adduction_l	hip_rotation_l	knee_angle_l	knee_angle_l_beta	ankle_angle_l	subtalar_angle_l	mtp_angle_l	crank_angle_l	lumbar_extension	lumbar_bending	lumbar_rotation	arm_flex_r	arm_add_r	arm_rot_r	elbow_flex_r	pro_sup_r	wrist_flex_r	wrist_dev_r	arm_flex_l	arm_add_l	arm_rot_l	elbow_flex_l	pro_sup_l	wrist_flex_l	wrist_dev_l
      5.00000000	     -1.34583333	     -1.20191851	      5.85718700	      0.08158336	      1.17540197	     -0.25418328	      0.00000000	      0.50000000	      0.00000000	      0.25000000	     66.26701147	     -3.25675261	      6.30443003	    106.55283044	      1.85969772	    -31.39688392	     -7.65056159	      0.00000000	      0.00000000	     28.74425473	     -3.83916157	     -2.51175616	     31.87772488	      0.55637126	      3.62681619	      7.14478644	      0.00000000	      0.00000000	    -67.54340143	      6.41599884	      3.62400039	     86.77180965	    -24.25734799	     45.10836997	     50.86990850	     45.20052350	      0.00000000	      0.00000000	     88.79664914	    -10.74986046	     51.49905066	     38.52716025	     29.10131774	      0.00000000	      0.00000000
      5.00500000	     -1.06070645	     -1.96331894	      5.35357521	      0.08272005	      1.17603720	     -0.25546730	      0.00000000	      0.50000000	      0.00000000	      0.25000000	     67.18085500	     -2.41265037	      6.03597968	    107.50514666	      1.87631877	    -30.33226543	     -7.50101991	      0.00000000	      0.00000000	     27.16027366	     -5.07970503	     -3.82999802	     30.59098522	      0.53391341	      3.18460485	     10.14908608	      0.00000000	      0.00000000	    -67.74445399	      7.05013865	      3.51528853	     87.23881170	    -21.99323632	     45.02363915	     49.00873129	     44.91066865	      0.00000000	      0.00000000	     88.59711235	    -12.76510881	     51.94659110	     39.20316609	     30.15819754	      0.00000000	      0.00000000
      5.01000000	     -1.02746856	     -2.72776997	      5.10935632	      0.08341453	      1.17643432	     -0.25744882	      0.00000000	      0.50000000	      0.00000000	      0.25000000	     68.30369875	     -1.88580333	      5.66514063	    108.32961443	      1.89070845	    -29.22009333	     -7.44341121	      0.00000000	      0.00000000	     26.00543452	     -5.92560034	     -4.07394436	     29.55168228	      0.51577416	      2.86248720	      8.70066290	      0.00000000	      0.00000000	    -67.75809480	      7.81724065	      4.06924637	     87.39382237	    -21.42932501	     45.11978183	     49.06419855	     44.92914740	      0.00000000	      0.00000000	     88.44565717	    -13.33782380	     51.85811366	     39.02633957	     30.21190325	      0.00000000	      0.00000000
      5.01500000	     -0.87709694	     -3.19385533	      4.81375464	      0.08410079	      1.17689545	     -0.25913223	      0.00000000	      0.50000000	      0.00000000	      0.25000000	     69.31263456	     -1.51037114	      5.58849440	    109.15338023	      1.90508587	    -27.71892123	     -7.18279945	      0.00000000	      0.00000000	     24.68841261	     -6.52295357	     -4.67052307	     28.49985439	      0.49741630	      2.29846719	      9.22027197	      0.00000000	      0.00000000	    -67.86831191	      8.46233713	      3.66516715	     87.89083910	    -19.38036845	     45.21597380	     47.41144873	     44.63297179	      0.00000000	      0.00000000	     88.11718680	    -15.17948270	     51.78886065	     39.73029143	     31.03248634	      0.00000000	      0.00000000
      5.02000000	     -0.93602118	     -3.80391698	      4.60048305	      0.08454203	      1.17708338	     -0.26078461	      0.00000000	      0.50000000	      0.00000000	      0.25000000	     70.51701845	     -1.13394861	      5.26314475	    109.80404749	      1.91644216	    -26.98413737	     -7.10492344	      0.00000000	      0.00000000	     23.77337741	     -7.15404987	     -4.91161830	     27.69468857	      0.48336350	      1.82559546	      9.46211901	      0.00000000	      0.00000000	    -67.83329229	      9.10106202	      4.10474187	     88.04002059	    -18.94924453	     45.26007870	     47.47756765	     44.64190317	      0.00000000	      0.00000000	     87.94143052	    -15.67156726	     51.74063485	     39.57550223	     31.05523328	      0.00000000	      0.00000000
      5.02500000	     -0.75108532	     -4.34335736	      4.16568360	      0.08500631	      1.17767132	     -0.26196669	      0.00000000	      0.50000000	      0.00000000	      0.25000000	     71.36793031	     -0.53827343	      5.16331138	    110.34147777	      1.92582209	    -25.51161369	     -6.52219762	      0.00000000	      0.00000000	     22.66119409	     -7.92155713	     -5.68020133	     27.17601883	      0.47431101	      1.47554670	     10.12924455	      0.00000000	      0.00000000	    -68.04869744	      9.61641482	      3.94327975	     88.34520054	    -17.30064870	     45.33883880	     46.65596121	     44.46722559	      0.00000000	      0.00000000	     87.66408422	    -17.25544524	     51.67047424	     39.97529899	     31.42379464	      0.00000000	      0.00000000
      5.03000000	     -0.89581084	     -4.79408462	      3.83365765	      0.08526951	      1.17778416	     -0.26326431	      0.00000000	      0.50000000	      0.00000000	      0.25000000	     72.55241387	     -0.13658100	      5.04125396	    110.71400001	      1.93232383	    -24.60248024	     -6.13186374	      0.00000000	      0.00000000	     22.04616533	     -8.42509766	     -6.04107923	     26.87541825	      0.46906454	      1.09002670	     10.07317792	      0.00000000	      0.00000000	    -67.91560710	     10.21835468	      3.24904468	     88.67645307	    -14.74032088	     45.14263705	     44.64731553	     43.96857952	      0.00000000	      0.00000000	     87.06023519	    -19.75866061	     51.85332420	     41.55759811	     32.37976021	      0.00000000	      0.00000000
      5.03500000	     -1.00450797	     -5.23389249	      3.52261804	      0.08516973	      1.17817697	     -0.26466671	      0.00000000	      0.50000000	      0.00000000	      0.25000000	     73.60885853	      0.23061631	      4.87856606	    110.87089045	      1.93506208	    -23.92575866	     -6.19855553	      0.00000000	      0.00000000	     21.45830117	     -8.79571426	     -6.01518716	     26.57634121	      0.46384466	      0.15407921	     10.07512279	      0.00000000	      0.00000000	    -67.94734557	     10.66037590	      3.61133141	     88.84060321	    -14.32216809	     45.13539958	     44.73124785	     43.96004576	      0.00000000	      0.00000000	     86.87113251	    -20.20138944	     51.85315736	     41.51120908	     32.43228109	      0.00000000	      0.00000000
      5.04000000	     -1.08764170	     -5.70644710	      3.05612471	      0.08501534	      1.17862549	     -0.26558631	      0.00000000	      0.50000000	      0.00000000	      0.25000000	     74.55749293	      0.80375326	      4.71670627	    110.85583256	      1.93479927	    -23.15804010	     -6.00544013	      0.00000000	      0.00000000	     20.99841448	     -9.32569705	     -6.20695925	     26.73991318	      0.46669953	     -0.14416207	      9.36294792	      0.00000000	      0.00000000	    -68.04988050	     10.97045178	      3.87695176	     88.96342045	    -13.60460395	     45.13569119	     44.77262604	     43.92966342	      0.00000000	      0.00000000	     86.65078816	    -21.01437671	     51.84746645	     41.57480545	     32.53243134	      0.00000000	      0.00000000
      5.04500000	     -1.30967222	     -6.03059500	      2.65029296	      0.08461494	      1.17884119	     -0.26645213	      0.00000000	      0.50000000	      0.00000000	      0.25000000	     75.60881901	      1.28409979	      4.73908944	    110.72902142	      1.93258600	    -22.46891556	     -5.54860535	      0.00000000	      0.00000000	     20.86787608	     -9.61926526	     -6.08367863	     27.22129812	      0.47510128	     -0.41157551	      8.32877611	      0.00000000	      0.00000000	    -68.07572830	     11.58707344	      2.58953144	     89.21804404	    -10.06260119	     44.10974900	     42.86250788	     42.91345059	      0.00000000	      0.00000000	     85.82575830	    -25.09335131	     51.83113543	     44.89239575	     34.22570618	      0.00000000	      0.00000000
      5.05000000	     -1.47434630	     -6.44521567	      2.06959729	      0.08411176	      1.17933135	     -0.26704168	      0.00000000	      0.50000000	      0.00000000	      0.25000000	     76.46410249	      1.96856493	      4.60891649	    110.40096372	      1.92686031	    -21.81927590	     -5.48011487	      0.00000000	      0.00000000	     20.76056017	    -10.08340067	     -6.05237792	     27.90594584	      0.48705064	     -0.54749319	      7.24750633	      0.00000000	      0.00000000	    -68.19049843	     11.62011181	      2.96155435	     89.31288764	     -9.63416446	     44.07901353	     43.09007590	     42.88933978	      0.00000000	      0.00000000	     85.77029023	    -25.57803076	     51.79769499	     44.82774850	     34.28984019	      0.00000000	      0.00000000
      5.05500000	     -1.67823671	     -6.85077453	      1.42297478	      0.08338265	      1.17980260	     -0.26739184	      0.00000000	      0.50000000	      0.00000000	      0.25000000	     77.24199381	      2.77667046	      4.51911589	    109.90534128	      1.91821007	    -21.17561515	     -5.38938678	      0.00000000	      0.00000000	     20.90574571	    -10.60352999	     -6.07372737	     29.05489736	      0.50710362	     -0.18844891	      5.50585608	      0.00000000	      0.00000000	    -68.29959929	     11.55193157	      3.28330508	     89.40360158	     -9.17892546	     43.98921715	     43.32225538	     42.85372464	      0.00000000	      0.00000000	     85.76710220	    -26.14146766	     51.81434385	     44.92779444	     34.38530606	      0.00000000	      0.00000000
